<svg class="transition-all duration-300 w-40 sm:w-56 h-12 sm:h-16 sm:-mt-3" width="254" height="73" viewBox="0 0 254 73"
    fill="none" xmlns="http://www.w3.org/2000/svg">
    <path
        d="M236.362 41.461H217.588V50.6255H206.544V32.2649H237.403C240.842 32.2649 242.83 30.59 242.83 28.1251C242.83 25.5969 240.842 24.0484 237.403 24.0484H206.544L213.896 14.6943H236.393C247.5 14.6943 253.968 20.1614 253.968 28.1567C254 36.1519 247.5 41.461 236.362 41.461Z"
        fill="#FF3654"></path>
    <path d="M132.301 14.7266H121.194V50.6261H132.301V14.7266Z" fill="#FF3654"></path>
    <path
        d="M163.948 28.0933C167.104 33.6236 168.492 36.3097 169.722 38.8379C170.89 36.3097 172.31 33.6868 175.465 28.1565L181.208 17.9492C182.501 15.6422 184.426 14.1254 187.329 14.1254C190.106 14.1254 192.567 15.737 193.545 19.0552L202.6 50.6253H191.557L188.181 38.111C187.045 34.0344 186.319 31.1271 185.72 28.2197C184.552 30.7479 183.195 33.4656 180.734 38.1426L175.907 47.1491C174.045 50.6885 172.215 51.1625 169.533 51.1625C166.851 51.1625 165.021 50.6885 163.159 47.1491L158.332 38.0794C155.713 33.1496 154.419 30.6215 153.283 28.1881C152.747 31.0323 151.958 34.0344 150.885 38.0794L147.509 50.5937H136.624L145.9 19.0236C146.878 15.7054 149.371 14.0938 152.179 14.0938C155.019 14.0938 156.944 15.5474 158.237 17.9176L163.948 28.0933Z"
        fill="#FF3654"></path>
    <path
        d="M1.19909 2.65474C2.42965 0.821838 4.0704 0.158203 5.99512 0.158203C6.02668 0.158203 6.02668 0.158203 6.05823 0.158203C21.8848 0.318315 37.7174 0.22141 53.5452 0.22141C54.902 0.22141 56.2587 0.189801 57.5839 0.253005C60.3921 0.379412 62.5693 3.09716 62.6008 6.47854C62.6324 10.9976 62.6324 15.5482 62.6324 20.0673C62.6324 29.4846 62.6008 38.8703 62.6324 48.2876C62.6324 51.2582 61.5911 53.3123 59.414 54.7976C51.1156 60.4227 42.8488 66.0479 34.6135 71.7362C33.6669 72.3682 32.7519 72.7791 31.8053 72.8739H30.7641C29.9121 72.7791 29.0287 72.4314 28.1452 71.7994C26.4413 70.5985 24.7375 69.4609 23.002 68.3232C22.4972 67.9756 9.93922 59.3483 9.46593 59.0323C7.44655 57.6734 5.49028 56.2829 3.43935 54.9872C1.76704 53.9127 0.694239 52.4906 0.220947 50.5629V4.86686C0.441816 4.07682 0.757348 3.34998 1.19909 2.65474Z"
        fill="url(#SimpLogo_linear)"></path>
    <path
        d="M102.641 29.0734C111.381 29.0734 116.083 32.3599 116.083 38.9015C116.083 46.2647 111.634 50.6573 100.685 50.6573H67.302L74.4329 41.4296H101.568C104.187 41.4296 105.386 40.6712 105.386 38.8067C105.386 36.9738 104.219 36.2153 101.568 36.2153H82.0687C72.8553 36.2153 68.6272 32.0755 68.6272 25.9132C68.6272 19.1505 73.1393 14.7578 84.025 14.7578H115.168L108.037 24.1119H83.1731C80.5857 24.1119 79.3552 24.744 79.3552 26.5769C79.3552 28.4098 80.5857 29.105 83.1731 29.105H102.641V29.0734Z"
        fill="#FF3654"></path>
    <path
        d="M34.6676 36.3588V41.5425H39.4058C42.0038 41.5425 43.2262 40.7831 43.2262 38.9506C43.2262 37.0444 42.0038 36.3588 39.4058 36.3588H34.6676ZM28.4014 29.1169V24.1588H23.8938C21.2957 24.1588 20.0723 24.7685 20.0723 26.5977C20.0723 28.5039 21.2957 29.1137 23.8938 29.1137L28.4014 29.1169ZM34.6676 14.7851H53.0832L45.8242 24.1588H34.6676V29.1169H40.4748C49.1856 29.1169 54 32.4704 54 39.0266C54 46.3455 49.4912 50.7665 38.488 50.7665H34.6676V59H28.4014V50.7665H8L15.259 41.5447H28.4014V36.3588H22.8237C13.5799 36.3588 9.29847 32.1655 9.29847 25.9913C9.29847 19.2062 13.8072 14.7851 24.8105 14.7851H28.3993V8H34.6654L34.6676 14.7851Z"
        fill="white"></path>
    <defs>
        <linearGradient id="SimpLogo_linear" x1="14.5874" y1="16.8985" x2="53.3725" y2="50.1905"
            gradientUnits="userSpaceOnUse">
            <stop offset="0.1" stop-color="#39E5FD"></stop>
            <stop offset="0.9" stop-color="#FF3654"></stop>
        </linearGradient>
    </defs>
</svg>