<svg class="h-5 w-auto mt-0.5" width="254" height="73" viewBox="0 0 254 73" fill="none"
    xmlns="http://www.w3.org/2000/svg">
    <path
        d="M102.641 29.0734C111.381 29.0734 116.083 32.3599 116.083 38.9015C116.083 46.2647 111.634 50.6573 100.685 50.6573H67.302L74.4329 41.4296H101.568C104.187 41.4296 105.386 40.6712 105.386 38.8067C105.386 36.9738 104.219 36.2153 101.568 36.2153H82.0687C72.8553 36.2153 68.6272 32.0755 68.6272 25.9132C68.6272 19.1505 73.1393 14.7578 84.025 14.7578H115.168L108.037 24.1119H83.1731C80.5857 24.1119 79.3552 24.744 79.3552 26.5769C79.3552 28.4098 80.5857 29.105 83.1731 29.105H102.641V29.0734Z"
        fill="white"></path>
    <path d="M132.301 14.7266H121.194V50.6261H132.301V14.7266Z" fill="white"></path>
    <path
        d="M163.948 28.0933C167.104 33.6236 168.492 36.3097 169.722 38.8379C170.89 36.3097 172.31 33.6868 175.465 28.1565L181.208 17.9492C182.501 15.6422 184.426 14.1254 187.329 14.1254C190.106 14.1254 192.567 15.737 193.545 19.0552L202.6 50.6253H191.557L188.181 38.111C187.045 34.0344 186.319 31.1271 185.72 28.2197C184.552 30.7479 183.195 33.4656 180.734 38.1426L175.907 47.1491C174.045 50.6885 172.215 51.1625 169.533 51.1625C166.851 51.1625 165.021 50.6885 163.159 47.1491L158.332 38.0794C155.713 33.1496 154.419 30.6215 153.283 28.1881C152.747 31.0323 151.958 34.0344 150.885 38.0794L147.509 50.5937H136.624L145.9 19.0236C146.878 15.7054 149.371 14.0938 152.179 14.0938C155.019 14.0938 156.944 15.5474 158.237 17.9176L163.948 28.0933Z"
        fill="white"></path>
    <path
        d="M236.362 41.461H217.588V50.6255H206.544V32.2649H237.403C240.842 32.2649 242.83 30.59 242.83 28.1251C242.83 25.5969 240.842 24.0484 237.403 24.0484H206.544L213.896 14.6943H236.393C247.5 14.6943 253.968 20.1614 253.968 28.1567C254 36.1519 247.5 41.461 236.362 41.461Z"
        fill="white"></path>
    <path
        d="M1.19909 2.65474C2.42965 0.821836 4.0704 0.158203 5.99512 0.158203C6.02668 0.158203 6.02668 0.158203 6.05823 0.158203C9.18196 0.189805 49.7904 0.189809 51.3049 0.22141C52.0622 0.22141 52.7879 0.22141 53.5452 0.22141C54.9019 0.22141 56.2587 0.189801 57.5839 0.253005C60.3921 0.379412 62.5693 3.09716 62.6008 6.47855C62.6324 10.9976 62.6324 15.5482 62.6324 20.0673C62.6324 29.4846 62.6008 38.8703 62.6324 48.2876C62.6324 51.2582 61.5911 53.3123 59.414 54.7976C51.1156 60.4227 42.8488 66.0478 34.6135 71.7361C33.6669 72.3682 32.7519 72.779 31.8053 72.8738H30.7641C29.9121 72.779 29.0287 72.4314 28.1452 71.7993C26.4413 70.5985 24.7375 69.4608 23.002 68.3231C22.4972 67.9755 9.93922 59.3482 9.46593 59.0322C7.44655 57.6734 5.49028 56.2829 3.43935 54.9872C1.76704 53.9127 0.694239 52.4907 0.220947 50.563V4.86686C0.441816 4.07682 0.757348 3.34998 1.19909 2.65474ZM39.5673 36.279C42.1862 36.279 43.4167 36.9742 43.4167 38.9019C43.4167 40.7348 42.1862 41.5249 39.5673 41.5249H34.8028V36.3106H39.5673V36.279ZM24.0118 28.979C21.3929 28.979 20.1623 28.3785 20.1623 26.4508C20.1623 24.6179 21.3929 23.9859 24.0118 23.9859H28.5238V28.979H24.0118ZM34.8028 7.71102H28.5238V14.537H24.9268C13.8833 14.537 9.33972 18.9928 9.33972 25.8188C9.33972 32.0443 13.6309 36.279 22.9074 36.279H28.4923V41.4933H15.3032L8.01447 50.7842H28.4923V59.0954H34.7713V50.7842H38.6207C49.6642 50.7842 54.2078 46.3283 54.2078 38.9651C54.2078 32.3604 49.3802 28.979 40.6401 28.979H34.8028V23.9859H46.0041L53.2928 14.537H34.8028V7.71102Z"
        fill="white"></path>
</svg>