<?xml version="1.0" encoding="utf-8"?>
<svg viewBox="197.139 158.073 62.412 72.716" xmlns="http://www.w3.org/2000/svg">
  <path d="M 198.117 160.57 C 199.348 158.737 200.989 158.073 202.913 158.073 C 202.945 158.073 202.945 158.073 202.977 158.073 C 206.1 158.105 246.709 158.105 248.223 158.136 C 248.981 158.136 249.706 158.136 250.464 158.136 C 251.82 158.136 253.177 158.105 254.502 158.168 C 257.31 158.294 259.488 161.012 259.519 164.393 C 259.551 168.912 259.551 173.463 259.551 177.982 C 259.551 187.399 259.519 196.785 259.551 206.202 C 259.551 209.173 258.509 211.227 256.332 212.712 C 248.034 218.338 239.767 223.963 231.532 229.651 C 230.585 230.283 229.67 230.694 228.724 230.789 L 227.682 230.789 C 226.83 230.694 225.947 230.346 225.064 229.714 C 223.36 228.513 221.656 227.376 219.92 226.238 C 219.416 225.89 206.858 217.263 206.384 216.947 C 204.365 215.588 202.409 214.198 200.358 212.902 C 198.685 211.828 197.613 210.406 197.139 208.478 L 197.139 162.782 C 197.36 161.992 197.676 161.265 198.117 160.57 Z M 236.486 194.194 C 239.105 194.194 240.335 194.889 240.335 196.817 C 240.335 198.65 239.105 199.44 236.486 199.44 L 231.721 199.44 L 231.721 194.225 L 236.486 194.225 L 236.486 194.194 Z M 220.93 186.894 C 218.311 186.894 217.081 186.293 217.081 184.366 C 217.081 182.533 218.311 181.901 220.93 181.901 L 225.442 181.901 L 225.442 186.894 L 220.93 186.894 Z M 231.721 165.626 L 225.442 165.626 L 225.442 172.452 L 221.845 172.452 C 210.802 172.452 206.258 176.908 206.258 183.734 C 206.258 189.959 210.549 194.194 219.826 194.194 L 225.411 194.194 L 225.411 199.408 L 212.222 199.408 L 204.933 208.699 L 225.411 208.699 L 225.411 217.01 L 231.69 217.01 L 231.69 208.699 L 235.539 208.699 C 246.583 208.699 251.126 204.243 251.126 196.88 C 251.126 190.275 246.299 186.894 237.558 186.894 L 231.721 186.894 L 231.721 181.901 L 242.922 181.901 L 250.211 172.452 L 231.721 172.452 L 231.721 165.626 Z" fill="#ff3654"/>
</svg>
